<svg xmlns="http://www.w3.org/2000/svg" width="128" height="128" viewBox="0 0 33.88 33.88" id="robot"><path fill="#e67701" d="M417.51239-198.99502v6.61458M417.51172-199.52344a.52899998.52899998 0 00-.5293.5293v6.61328a.52899998.52899998 0 00.5293.5293.52899998.52899998 0 00.5293-.5293v-6.61328a.52899998.52899998 0 00-.5293-.5293z" color="#000" transform="translate(-412.912 206.75) scale(1.0004)"></path><path fill="#fcc419" d="m 4.7634643,13.763161 c -1.2352061,0 -1.9969859,0.696754 -2.3248049,1.352392 -0.3278191,0.655639 -0.3205262,1.295 -0.3205262,1.295 v 3.177281 c 0,0 -0.007,0.639891 0.3205262,1.295529 0.327819,0.655638 1.0895988,1.349802 2.3248049,1.349802 H 6.881998 A 0.5294263,0.5294263 0 0 0 7.4113663,21.703786 V 14.29254 A 0.5294263,0.5294263 0 0 0 6.881998,13.763161 Z" color="#000"></path><path fill="#e67701" d="M 29.115098,7.1473076 A 0.52920825,0.52920825 0 0 0 28.585589,7.676816 V 14.2927 a 0.52920825,0.52920825 0 0 0 0.529509,0.529508 0.52920825,0.52920825 0 0 0 0.529498,-0.529508 V 7.676816 A 0.52920825,0.52920825 0 0 0 29.115098,7.1473076 Z" color="#000"></path><path fill="#fcc419" d="m 26.999275,13.763161 a 0.5294263,0.5294263 0 0 0 -0.529888,0.529379 v 7.411246 a 0.5294263,0.5294263 0 0 0 0.529888,0.529379 h 2.115953 c 1.235196,0 1.999057,-0.694164 2.326876,-1.349802 0.327819,-0.655638 0.320516,-1.295529 0.320516,-1.295529 v -3.177281 c 0,0 0.007,-0.639361 -0.320516,-1.295 -0.327819,-0.655638 -1.09168,-1.352392 -2.326876,-1.352392 z" color="#000"></path><path fill="#3a69ff" d="m 9.5293899,7.9405498 c -1.4998903,0 -2.396093,0.8280659 -2.790078,1.616046 C 6.3453168,10.344576 6.3520995,11.11784 6.3520995,11.11784 v 14.821983 c 0,0 -0.007,0.771194 0.3872124,1.559174 0.393985,0.78798 1.2901877,1.616036 2.790078,1.616036 H 24.351373 c 1.49989,0 2.396073,-0.828056 2.790068,-1.616036 0.393995,-0.78798 0.385142,-1.559174 0.385142,-1.559174 V 11.11784 c 0,0 0.009,-0.773264 -0.385142,-1.5612442 -0.393995,-0.7879801 -1.290178,-1.616046 -2.790068,-1.616046 z" color="#000"></path><path fill="#154dfc" d="M13.763356 24.881067c-.292355.00003-.529348.237023-.529378.529378v3.704588h7.410736v-3.704588c-.00003-.292355-.237023-.529348-.529378-.529378zM10.588137 7.9405498v3.7066592c.001.291744.238143.527567.529888.527307h11.645223c.291545-.00003.528198-.235763.529368-.527307V7.9405498z" color="#000"></path><path fill="#fcc419" d="m 4.7634643,4.7637896 c -0.8708227,0 -1.5860642,0.7173023 -1.5860642,1.588125 0,0.8708227 0.7152415,1.5886352 1.5860642,1.5886352 0.8708227,0 1.5886352,-0.7178125 1.5886352,-1.5886352 0,-0.8708227 -0.7178125,-1.588125 -1.5886352,-1.588125 z" color="#000"></path><path fill="#b4c6ff" d="M12.174711 14.822428c-1.747918 0-3.1752197 1.428852-3.1752197 3.17677 0 1.747918 1.4273017 3.17521 3.1752197 3.17521 1.747928 0 3.17728-1.427292 3.17728-3.17521 0-1.747918-1.429352-3.17677-3.17728-3.17677zM21.703981 14.822428c-1.747918 0-3.175219 1.428852-3.175219 3.17677 0 1.747918 1.427301 3.17521 3.175219 3.17521 1.747918 0 3.17676-1.427292 3.17676-3.17521 0-1.747918-1.428842-3.17677-3.17676-3.17677z" color="#000"></path><path fill="#fcc419" d="m 29.115228,4.7637896 c -0.870833,0 -1.588635,0.7173023 -1.588645,1.588125 0,0.8708227 0.717812,1.5886352 1.588645,1.5886352 0.870822,0 1.588645,-0.7178125 1.588645,-1.5886352 0,-0.8708227 -0.717823,-1.588125 -1.588645,-1.588125 z" color="#000"></path></svg>